<svg width="227" height="227" viewBox="0 0 227 227" fill="none" xmlns="http://www.w3.org/2000/svg">
<g clip-path="url(#clip0_83_45)">
<path d="M155.256 78.3514C145.504 72.1454 133.808 69.1897 122.355 69.6994C93.4977 70.8995 68.2859 92.7304 66.4087 124.09C65.788 135.548 68.4101 147.442 74.2636 157.511C80.1913 167.354 89.1981 175.071 99.6227 179.993C109.971 184.764 121.738 186.739 133.108 184.949C144.479 183.158 155.153 177.754 163.479 169.95C171.805 162.146 178.083 151.79 180.74 140.623C183.546 129.003 182.278 116.801 177.626 105.746C173.274 94.539 165.388 84.9323 155.256 78.3514Z" fill="#113865"/>
<path d="M188.965 82.6283C186.163 80.0801 182.325 81.0791 179.242 82.4511C175.257 84.2798 171.575 86.3331 167.894 88.7632C167.744 88.8393 167.594 88.9154 167.594 88.9154C167.67 89.0657 167.822 89.3664 167.898 89.5167C167.974 89.6671 168.201 89.7413 168.277 89.8917C168.353 90.042 168.655 90.2666 168.731 90.4169C170.008 89.5815 171.361 88.8965 172.638 88.0611C175.419 86.4645 178.576 84.866 181.661 83.8708C182.789 83.4883 184.295 83.104 185.427 83.4751C186.559 83.8462 187.317 84.596 187.849 85.6484C189.067 88.0539 188.553 90.7695 187.208 92.9617C185.714 95.6069 183.691 97.9533 181.668 100.3C179.571 102.872 177.397 105.295 175.224 107.717C170.878 112.562 166.379 117.107 161.653 121.577C152.203 130.517 141.919 138.557 131.254 145.845C120.363 153.06 108.864 159.448 97.0598 164.858C91.0442 167.526 85.1029 169.967 78.859 172.184C76.151 173.177 73.5933 174.094 70.6569 174.637C68.6245 175.099 66.063 175.263 64.0991 174.368C63.3436 173.995 62.7385 173.546 62.434 172.945C61.8213 170.988 61.8118 169.104 62.6301 166.99C63.2963 164.575 64.4914 162.459 65.6105 160.193C66.208 159.135 66.7295 157.926 67.4013 156.642C67.9228 155.433 68.7468 154.449 69.4947 153.315C70.1684 152.407 70.6917 151.576 71.3654 150.668C71.1371 150.217 70.8326 149.616 70.6043 149.165C70.3036 149.317 70.079 149.62 69.7783 149.772C68.2768 150.91 67.0779 152.272 65.7286 153.711C64.3793 155.15 63.03 156.588 62.0595 158.402C61.0127 160.065 60.2686 161.953 59.4484 163.69C57.9582 167.089 56.7744 171.466 59.804 174.465C60.6375 175.365 61.9239 176.414 63.2826 176.859C64.6414 177.305 66.0744 177.523 67.5054 177.366C70.6702 177.274 73.755 176.279 76.6895 175.36C80.526 173.984 84.3626 172.608 88.1991 171.233C95.5696 168.256 102.938 164.904 110.004 161.326C124.361 153.868 137.882 145.134 150.492 134.972C162.951 124.886 174.425 113.6 184.688 101.415C187.01 98.5395 189.859 95.586 191.122 92.1131C191.935 88.8684 191.463 84.952 188.965 82.6283Z" fill="white"/>
<path d="M113 82.558C112.847 82.2573 112.545 82.0328 112.242 81.8082C112.016 81.734 111.789 81.6598 111.487 81.4352C111.034 81.2867 110.431 81.2144 109.98 81.4428C109.679 81.595 109.529 81.6711 109.152 81.673C108.701 81.9014 108.326 82.2801 107.951 82.6587C107.801 82.7349 107.726 82.9613 107.576 83.0374C107.351 83.34 107.203 83.7929 107.129 84.0194C106.98 84.4723 106.982 84.8491 107.134 85.1498C107.136 85.5266 107.365 85.9776 107.667 86.2022C107.819 86.5029 108.122 86.7274 108.425 86.952C108.651 87.0262 108.878 87.1004 109.18 87.325C109.633 87.4734 110.236 87.5458 110.687 87.3174C110.988 87.1652 111.138 87.0891 111.515 87.0872C111.966 86.8588 112.341 86.4801 112.716 86.1014C112.866 86.0253 112.941 85.7989 113.091 85.7227C113.315 85.4202 113.464 84.9673 113.538 84.7408C113.687 84.2879 113.685 83.9111 113.532 83.6104C113.304 83.1594 113.152 82.8587 113 82.558Z" fill="#E6EAEC"/>
<path d="M107.933 109.111C104.626 110.785 107.29 116.047 110.597 114.373C114.055 112.622 111.391 107.36 107.933 109.111Z" fill="#E6EAEC"/>
<path d="M134.513 89.6092C131.657 91.0554 133.864 95.4153 136.721 93.9691C139.653 92.6732 137.37 88.1629 134.513 89.6092Z" fill="#E6EAEC"/>
<path d="M145.472 110.882C144.941 110.206 144.11 109.683 143.28 109.536C142.374 109.239 141.62 109.243 140.717 109.323C139.889 109.553 138.987 110.01 138.311 110.541L138.161 110.617C137.485 111.148 136.962 111.979 136.665 112.885C136.368 113.791 136.221 114.621 136.528 115.599C136.834 116.577 137.215 117.329 137.822 118.155C138.353 118.83 139.184 119.354 140.09 119.651C140.996 119.948 141.826 120.094 142.804 119.788C143.782 119.481 144.534 119.101 145.36 118.494C146.035 117.963 146.559 117.131 146.856 116.225C147.152 115.32 147.299 114.49 146.993 113.512L146.917 113.361C146.46 112.459 146.003 111.557 145.472 110.882Z" fill="#E6EAEC"/>
<path d="M121.24 132.783C120.862 132.408 120.333 132.109 119.88 131.961C119.653 131.887 119.276 131.888 119.05 131.814C118.447 131.742 117.92 131.82 117.318 132.124C116.867 132.353 116.567 132.505 116.418 132.958C116.194 133.26 115.969 133.563 115.821 134.016C115.672 134.469 115.674 134.846 115.676 135.222C115.678 135.599 115.756 136.126 115.908 136.427C116.06 136.728 116.136 136.878 116.439 137.103C116.818 137.478 117.347 137.776 117.8 137.925C118.026 137.999 118.403 137.997 118.629 138.071C119.233 138.144 119.76 138.066 120.361 137.761C120.812 137.533 121.113 137.381 121.261 136.928C121.486 136.625 121.71 136.323 121.859 135.87C122.007 135.417 122.005 135.04 122.003 134.663C122.002 134.286 121.849 133.986 121.621 133.535C121.545 133.384 121.393 133.084 121.24 132.783Z" fill="#E6EAEC"/>
<path d="M165.233 129.02C157.565 132.902 163.579 144.779 171.246 140.897C178.913 137.015 172.9 125.138 165.233 129.02Z" fill="#E6EAEC"/>
<path d="M147.696 148.476C147.317 148.101 147.015 147.876 146.562 147.728C146.335 147.654 146.109 147.58 145.882 147.505C145.355 147.583 144.978 147.585 144.527 147.814C144.227 147.966 143.926 148.118 143.701 148.421C143.477 148.723 143.252 149.026 143.178 149.252C142.954 149.555 142.955 149.932 143.108 150.232C143.11 150.609 143.111 150.986 143.414 151.21C143.49 151.361 143.642 151.661 143.869 151.736C144.248 152.111 144.55 152.335 145.003 152.484C145.229 152.558 145.456 152.632 145.682 152.706C146.21 152.628 146.586 152.626 147.037 152.398C147.338 152.246 147.639 152.094 147.863 151.791C148.088 151.488 148.312 151.186 148.387 150.959C148.611 150.657 148.609 150.28 148.457 149.979C148.455 149.602 148.453 149.226 148.151 149.001C147.998 148.7 147.922 148.55 147.696 148.476Z" fill="#E6EAEC"/>
<path d="M163.051 99.7149C162.596 99.1897 162.067 98.8909 161.387 98.6682C161.161 98.594 160.784 98.5959 160.558 98.5217C159.955 98.4493 159.277 98.6035 158.676 98.9079C158.225 99.1363 157.85 99.515 157.625 99.8176C157.25 100.196 157.026 100.499 156.953 101.102C156.805 101.555 156.656 102.008 156.734 102.535C156.813 103.062 156.814 103.439 157.043 103.89C157.195 104.191 157.498 104.415 157.65 104.716C158.105 105.241 158.634 105.54 159.313 105.763C159.539 105.837 159.916 105.835 160.143 105.909C160.746 105.982 161.423 105.827 162.025 105.523C162.476 105.295 162.851 104.916 163.075 104.613C163.45 104.235 163.675 103.932 163.747 103.329C163.896 102.876 164.044 102.423 163.966 101.896C163.888 101.369 163.66 100.918 163.431 100.467C163.279 100.166 163.203 100.016 163.051 99.7149Z" fill="#E6EAEC"/>
<path d="M92.509 114.087C90.2538 115.229 92.0045 118.686 94.2597 117.545C96.5148 116.403 94.7641 112.945 92.509 114.087Z" fill="#E6EAEC"/>
<path d="M120.307 96.9909C120.004 96.7663 119.702 96.5417 119.475 96.4675C119.249 96.3933 119.098 96.4694 119.022 96.319C118.646 96.3209 118.269 96.3228 117.968 96.4751C117.667 96.6273 117.517 96.7034 117.292 97.006C116.992 97.1582 116.918 97.3847 116.919 97.7615C116.845 97.988 116.771 98.2144 116.773 98.5912C116.699 98.8177 116.851 99.1183 117.003 99.419C117.079 99.5694 117.155 99.7197 117.232 99.8701C117.534 100.095 117.837 100.319 118.063 100.393L118.516 100.542C118.893 100.54 119.27 100.538 119.57 100.386C119.871 100.234 120.021 100.157 120.246 99.8549C120.547 99.7027 120.621 99.4762 120.619 99.0994C120.693 98.873 120.767 98.6465 120.765 98.2697C120.84 98.0432 120.687 97.7426 120.535 97.4419C120.459 97.2915 120.383 97.1412 120.307 96.9909Z" fill="#E6EAEC"/>
<path d="M135.983 127.207C133.277 128.577 135.332 132.637 138.038 131.266C140.821 130.047 138.689 125.837 135.983 127.207Z" fill="#E6EAEC"/>
<path d="M127.592 166.965C126.758 166.065 125.624 165.317 124.492 164.946C123.889 164.874 123.209 164.651 122.606 164.579C121.249 164.51 120.044 164.742 118.842 165.351C117.94 165.808 117.114 166.415 116.59 167.247C115.991 167.928 115.468 168.76 115.171 169.665C114.874 170.571 114.803 171.551 114.883 172.455C114.813 173.435 115.119 174.413 115.576 175.315C116.031 175.841 116.335 176.442 116.79 176.967C117.624 177.867 118.758 178.615 119.89 178.986C120.493 179.059 121.173 179.281 121.776 179.354C123.133 179.422 124.337 179.19 125.54 178.581C126.442 178.125 127.268 177.518 127.791 176.686C128.391 176.005 128.914 175.173 129.211 174.267C129.508 173.361 129.578 172.381 129.499 171.477C129.569 170.497 129.263 169.519 128.806 168.617C128.351 168.092 127.896 167.567 127.592 166.965Z" fill="#E6EAEC"/>
<path d="M51.2337 133.662L45.3667 135.877L43.8898 141.914L40.0972 137.034L33.7696 137.593L37.1343 132.301L34.8451 126.661L40.8814 128.138L45.6848 124.195L46.0176 130.448L51.2337 133.662Z" fill="white"/>
<path d="M131.732 46.0642L123.953 42.6367L116.966 47.1181L117.678 38.8247L111.17 33.4314L119.45 31.5058L122.501 23.7282L126.758 31.0169L135.125 31.5023L129.656 37.8602L131.732 46.0642Z" fill="white"/>
<path d="M211.349 127.959L206.308 129.567L204.825 134.473L201.714 130.193L196.515 130.37L199.659 126.134L197.9 121.169L202.882 122.802L207.162 119.69L207.113 124.815L211.349 127.959Z" fill="white"/>
</g>
<defs>
<clipPath id="clip0_83_45">
<rect width="168.512" height="168.512" fill="white" transform="translate(0 76.1172) rotate(-26.853)"/>
</clipPath>
</defs>
</svg>
