<svg width="58" height="50" viewBox="0 0 58 50" fill="none" xmlns="http://www.w3.org/2000/svg">
<g clip-path="url(#clip0_81_241)">
<path d="M16.0714 47.3214C16.0714 47.5582 16.1655 47.7853 16.3329 47.9528C16.5004 48.1202 16.7275 48.2143 16.9643 48.2143H54.3679C55.5554 48.2143 56.2232 47.65 56.5732 47.175C56.9946 46.6071 57.1429 45.9393 57.1429 45.3429C57.1429 44.9839 57.0893 44.6518 57.0054 44.3821C55.4071 39.1518 43.6446 27.6946 40.5946 24.7875C43.6625 21.9536 55.4071 10.85 57.0054 5.61964C57.2268 4.89821 57.2464 3.73571 56.5714 2.82679C56.2214 2.35 55.5554 1.78571 54.3679 1.78571H16.9643C16.7275 1.78571 16.5004 1.87978 16.3329 2.04723C16.1655 2.21467 16.0714 2.44177 16.0714 2.67857C16.0714 2.91537 16.1655 3.14248 16.3329 3.30992C16.5004 3.47736 16.7275 3.57143 16.9643 3.57143H54.3679C54.85 3.57143 55.0375 3.75179 55.1375 3.8875C55.3732 4.20536 55.4054 4.75179 55.3 5.09643C53.6411 10.525 38.8357 23.9804 38.6875 24.1143C38.5959 24.1972 38.5225 24.2982 38.4719 24.4109C38.4214 24.5236 38.3947 24.6455 38.3937 24.7691C38.3927 24.8926 38.4173 25.015 38.4661 25.1285C38.5148 25.242 38.5865 25.3442 38.6768 25.4286C38.825 25.5679 53.6375 39.4679 55.3 44.9036C55.4054 45.2464 55.3732 45.7946 55.1375 46.1125C55.0375 46.2482 54.8482 46.4286 54.3679 46.4286H16.9643C16.7275 46.4286 16.5004 46.5226 16.3329 46.6901C16.1655 46.8575 16.0714 47.0846 16.0714 47.3214ZM11.6071 0H2.67857C1.20179 0 0 1.20179 0 2.67857L0 47.3214C0 48.7982 1.20179 50 2.67857 50H11.6071C11.8439 50 12.071 49.9059 12.2385 49.7385C12.4059 49.571 12.5 49.3439 12.5 49.1071L12.5 0.892857C12.5 0.656055 12.4059 0.428955 12.2385 0.261513C12.071 0.0940666 11.8439 0 11.6071 0ZM10.7143 1.78571L10.7143 48.2143H2.67857C2.44177 48.2143 2.21467 48.1202 2.04723 47.9528C1.87978 47.7853 1.78571 47.5582 1.78571 47.3214L1.78571 2.67857C1.78571 2.44177 1.87978 2.21467 2.04723 2.04723C2.21467 1.87978 2.44177 1.78571 2.67857 1.78571H10.7143Z" fill="#267400"/>
</g>
<defs>
<clipPath id="clip0_81_241">
<rect width="50" height="57.1429" fill="white" transform="matrix(0 -1 1 0 0 50)"/>
</clipPath>
</defs>
</svg>
