<svg width="58" height="62" viewBox="0 0 58 62" fill="none" xmlns="http://www.w3.org/2000/svg">
<g clip-path="url(#clip0_95_240)">
<path d="M29.4825 51.9506C26.6586 49.7483 23.8327 47.5485 21.022 45.3294C22.5987 42.5516 23.8624 39.6121 24.7829 36.552C24.958 35.9694 24.2615 35.4181 23.7382 35.75C20.6007 37.7394 17.4819 39.7561 14.3644 41.776C12.3629 39.2422 10.1732 36.8723 7.821 34.6577C7.30126 34.1683 6.63408 34.677 6.7186 35.2986C6.98735 37.276 7.25609 39.2534 7.52483 41.2309C7.7326 42.7594 7.90424 44.3219 8.41011 45.7783C5.33326 46.2754 2.38127 48.5383 0.153246 50.5944C-0.278099 50.9926 0.0735585 51.6851 0.613628 51.7044C3.84178 51.8185 7.04413 51.6326 10.2361 51.1798C11.0272 54.6391 12.0399 58.0195 13.2927 61.3441C13.5853 62.1209 14.4838 62.2082 14.9674 61.5625C17.2593 58.5015 19.0699 55.2059 20.1997 51.5601C23.0242 52.1536 25.8481 52.7497 28.6743 53.3367C29.3983 53.4872 30.1945 52.5061 29.4825 51.9506Z" fill="white"/>
<path d="M30.9856 17.2872C30.1681 15.1071 29.3489 12.9277 28.5446 10.7428C30.3642 9.73682 32.0657 8.53464 33.6172 7.14944C33.9127 6.88587 33.7137 6.34359 33.3104 6.35003C30.893 6.38902 28.4765 6.44927 26.0598 6.5121C25.8114 4.42706 25.4029 2.36941 24.8516 0.342361C24.7296 -0.105516 24.1866 -0.0497726 24.0221 0.323995C23.4985 1.51232 22.9749 2.70064 22.4513 3.88864C22.0464 4.80727 21.6102 5.73235 21.3953 6.71188C19.5193 5.9434 17.1115 6.19698 15.1758 6.5817C14.8012 6.65613 14.7606 7.15975 15.0535 7.35373C16.8057 8.51241 18.6456 9.49612 20.5704 10.3284C19.8325 12.5159 19.2441 14.735 18.8079 17.0047C18.7059 17.535 19.1747 17.8885 19.6625 17.6942C21.9754 16.774 24.1011 15.5599 25.9685 13.9204C27.3335 15.2083 28.6975 16.4972 30.0655 17.7818C30.4162 18.1111 31.1917 17.8369 30.9856 17.2872Z" fill="white"/>
<path d="M57.8235 34.5784C55.6642 33.7014 53.5046 32.8262 51.3508 31.9363C51.8431 29.9179 52.1112 27.8538 52.1428 25.7759C52.1489 25.3802 51.6147 25.1588 51.3463 25.4595C49.7367 27.2613 48.1436 29.077 46.5521 30.8942C44.8486 29.6637 43.0565 28.5692 41.1904 27.6006C40.7781 27.3866 40.451 27.8232 40.6146 28.1973C41.1346 29.3873 41.6547 30.5772 42.1748 31.7668C42.5767 32.6867 42.9623 33.6337 43.5378 34.4557C41.7008 35.3128 40.2558 37.2528 39.2273 38.9351C39.0282 39.2608 39.3715 39.632 39.7128 39.5479C41.7534 39.0466 43.7246 38.3615 45.6417 37.5119C46.7521 39.5363 47.9874 41.4722 49.3631 43.3307C49.6844 43.7651 50.2622 43.6603 50.45 43.1703C51.3398 40.8477 51.8863 38.464 51.945 35.9817C53.8185 35.8518 55.6916 35.7236 57.5648 35.5895C58.0442 35.5551 58.3681 34.7998 57.8235 34.5784Z" fill="white"/>
</g>
<defs>
<clipPath id="clip0_95_240">
<rect width="58" height="62" fill="white"/>
</clipPath>
</defs>
</svg>
